<?xml version="1.0" encoding="UTF-8" standalone="no"?><!-- Generator: Gravit.io --><svg xmlns="http://www.w3.org/2000/svg" xmlns:xlink="http://www.w3.org/1999/xlink" style="isolation:isolate" viewBox="0 0 840 240" width="840pt" height="240pt"><clipPath id="_clipPath_Kewt2AXJze2jcAX9znkxhaxXSVhIUukP"><path d=" M 415.204 0 L 0 0 L 0 240 L 840 240 L 840 0 L 840 0 L 415.204 0 Z " fill="rgb(255,255,255)"/></clipPath><g clip-path="url(#_clipPath_Kewt2AXJze2jcAX9znkxhaxXSVhIUukP)"><path d=" M 158.5 119.062 C 158.5 156.184 152.656 191.934 141.883 225.476 C 141.852 225.582 141.602 226.203 141.383 226.422 C 141.078 226.726 140.609 226.906 140.508 226.945 C 121.461 234.152 100.812 238.109 79.242 238.109 C 57.5 238.109 36.703 234.082 17.523 226.762 C 17.391 226.684 17.258 226.594 17.141 226.476 C 16.961 226.301 16.773 225.887 16.688 225.664 C 5.875 192.07 0 156.258 0 119.062 L 0 119.047 C 0 81.852 5.875 46.039 16.688 12.445 C 16.773 12.223 16.961 11.805 17.141 11.633 C 17.258 11.516 17.391 11.422 17.523 11.344 C 36.703 4.027 57.5 0 79.242 0 C 100.812 0 121.461 3.953 140.508 11.164 C 140.609 11.203 141.078 11.383 141.383 11.688 C 141.602 11.91 141.852 12.523 141.883 12.633 C 152.656 46.172 158.5 81.926 158.5 119.047 L 158.5 119.062 Z " fill="rgb(236,52,56)"/><path d=" M 26.266 20.602 C 16.5 52.527 11.516 85.637 11.516 119.062 C 11.516 152.476 16.5 185.582 26.266 217.508 C 43.476 223.496 61.281 226.598 79.242 226.598 C 97.266 226.598 115.07 223.5 132.242 217.527 C 142.008 185.613 146.984 152.504 146.984 119.047 C 146.984 85.594 142.008 52.484 132.242 20.586 C 115.055 14.609 97.25 11.508 79.242 11.508 C 61.281 11.508 43.476 14.617 26.266 20.602 Z  M 79.242 8.145 C 98.195 8.145 116.938 11.441 134.961 17.914 C 145.172 50.652 150.352 84.676 150.352 119.047 C 150.352 153.422 145.172 187.449 134.961 220.199 C 116.945 226.668 98.211 229.965 79.242 229.965 C 60.344 229.965 41.609 226.66 23.547 220.176 C 13.336 187.414 8.148 153.398 8.148 119.062 C 8.148 84.719 13.336 50.695 23.547 17.934 C 41.602 11.445 60.344 8.145 79.242 8.145 Z " fill="rgb(254,254,254)"/><path d=" M 112.906 136.117 C 105.82 127.82 95.336 122.516 83.695 122.516 C 75.203 122.516 67.398 125.359 61.102 130.106 C 60.695 109.891 61.805 89.024 65.148 69.312 C 68.797 48.07 71.055 43.926 80.648 34.266 C 85.398 29.484 89.695 24.984 91.094 23.664 C 91.524 23.246 91.117 22.867 90.602 23.297 C 90.883 23.078 85.203 27.336 78.547 31.453 C 71.922 35.574 64.352 39.531 62.086 40.621 C 51.797 45.484 47.524 47.34 44.008 48.738 C 41.734 49.613 39.094 50.898 38.336 51.562 C 37.586 52.219 38.016 52.203 39.102 52.07 C 43.984 51.43 47.891 50.008 51.774 50.008 C 54.648 50.008 56.961 50.203 56.961 55.797 C 56.961 60.726 52.492 86.875 52.492 117.387 C 52.492 139.387 59.352 179.914 67.734 208.402 L 67.75 208.461 C 68.024 209.48 68.969 210.84 69.633 210.59 C 70.297 210.34 70.438 209.152 70.086 207.562 C 65.805 188.582 62.375 164.168 61.344 138.258 C 67.25 133.586 74.672 130.762 82.774 130.762 C 90.539 130.762 98.555 133.551 105.094 138.078 C 105.719 138.531 105.656 138.922 105.578 139.531 C 105.453 140.449 93.656 208.25 93.656 208.25 C 93.476 209.125 93.656 210.496 94.242 210.625 C 94.828 210.758 95.562 209.598 95.774 208.723 C 95.891 208.207 113.188 141.012 113.516 139.582 C 113.875 138.008 113.68 137.148 112.906 136.117 Z " fill="rgb(254,254,254)"/><path d=" M 216.766 99.012 L 216.766 67.644 L 191.988 67.644 L 191.988 99.012 L 169.488 99.012 L 169.488 19.457 L 191.988 19.457 L 191.988 48.438 L 216.766 48.438 L 216.766 19.457 L 239.266 19.457 L 239.266 99.012 L 216.766 99.012 Z " fill="rgb(255,255,255)"/><path d=" M 291.808 62.305 C 288.969 52.074 287.715 47.758 286.695 42.414 C 285.672 47.758 284.422 52.188 281.578 62.305 L 280.102 67.531 L 293.285 67.531 L 291.808 62.305 Z  M 302.945 99.012 L 298.625 85.031 L 274.762 85.031 L 270.442 99.012 L 246.805 99.012 L 275.672 19.457 L 297.945 19.457 L 326.812 99.012 L 302.945 99.012 Z " fill="rgb(255,255,255)"/><path d=" M 363.92 100.262 C 340.281 100.262 327.668 82.762 327.668 59.234 C 327.668 33.664 342.668 18.207 364.036 18.207 C 383.584 18.207 391.308 26.617 396.764 41.621 L 376.76 49.461 C 373.92 42.074 371.196 37.414 363.92 37.414 C 354.715 37.414 350.738 46.621 350.738 59.234 C 350.738 71.394 354.602 81.055 364.148 81.055 C 371.084 81.055 374.036 77.305 378.356 69.805 L 396.992 79.692 C 391.652 90.148 382.784 100.262 363.92 100.262 Z " fill="rgb(255,255,255)"/><path d=" M 405.668 99.012 L 405.668 19.457 L 466.584 19.457 L 466.584 37.984 L 427.488 37.984 L 427.488 48.551 L 451.012 48.551 L 451.012 66.848 L 427.488 66.848 L 427.488 80.488 L 467.38 80.488 L 467.38 99.012 L 405.668 99.012 Z " fill="rgb(255,255,255)"/><path d=" M 518.548 38.664 L 518.548 99.012 L 496.496 99.012 L 496.496 38.664 L 474.224 38.664 L 474.224 19.457 L 540.82 19.457 L 540.82 38.664 L 518.548 38.664 Z " fill="rgb(255,255,255)"/><path d=" M 591.796 38.664 L 591.796 99.012 L 569.748 99.012 L 569.748 38.664 L 547.472 38.664 L 547.472 19.457 L 614.072 19.457 L 614.072 38.664 L 591.796 38.664 Z " fill="rgb(255,255,255)"/><path d=" M 622.324 99.012 L 622.324 19.457 L 683.24 19.457 L 683.24 37.984 L 644.144 37.984 L 644.144 48.551 L 667.668 48.551 L 667.668 66.848 L 644.144 66.848 L 644.144 80.488 L 684.036 80.488 L 684.036 99.012 L 622.324 99.012 Z " fill="rgb(255,255,255)"/><path d=" M 728.984 37.414 L 717.056 37.414 L 717.056 55.258 L 728.644 55.258 C 735.804 55.258 738.644 52.188 738.644 46.164 C 738.644 40.938 736.032 37.414 728.984 37.414 Z  M 728.08 73.215 L 717.056 73.215 L 717.056 99.012 L 695.348 99.012 L 695.348 19.457 L 729.556 19.457 C 748.192 19.457 760.58 26.617 760.58 45.824 C 760.58 66.055 747.168 73.215 728.08 73.215 Z " fill="rgb(255,255,255)"/><path d=" M 768.392 99.012 L 768.392 19.457 L 829.304 19.457 L 829.304 37.984 L 790.212 37.984 L 790.212 48.551 L 813.736 48.551 L 813.736 66.848 L 790.212 66.848 L 790.212 80.488 L 830.1 80.488 L 830.1 99.012 L 768.392 99.012 Z " fill="rgb(255,255,255)"/><path d=" M 203.695 222.621 C 183.692 222.621 169.031 212.621 169.031 187.391 L 169.031 141.816 L 191.535 141.816 L 191.535 187.391 C 191.535 197.164 195.398 203.188 204.035 203.188 C 212.672 203.188 216.308 197.164 216.308 187.391 L 216.308 141.816 L 238.812 141.816 L 238.812 187.391 C 238.812 212.621 223.695 222.621 203.695 222.621 Z " fill="rgb(255,255,255)"/><path d=" M 299.922 221.371 L 280.945 195.117 C 277.422 190.23 270.602 180.004 268.558 176.48 C 269.125 180.004 269.238 190.574 269.238 197.051 L 269.238 221.371 L 248.102 221.371 L 248.102 141.816 L 267.535 141.816 L 285.035 165.344 C 288.672 170.23 295.719 180.801 297.422 184.094 C 296.856 180.57 296.742 170.004 296.742 163.524 L 296.742 141.816 L 317.879 141.816 L 317.879 221.371 L 299.922 221.371 Z " fill="rgb(255,255,255)"/><path d=" M 327.914 221.371 L 327.914 141.816 L 350.418 141.816 L 350.418 221.371 L 327.914 221.371 Z " fill="rgb(255,255,255)"/><path d=" M 407.716 221.371 L 385.436 221.371 L 358.052 141.816 L 382.824 141.816 L 388.62 163.184 C 391.348 173.07 395.212 189.207 396.692 196.824 C 398.168 189.207 402.032 173.184 404.756 163.184 L 410.556 141.816 L 435.1 141.816 L 407.716 221.371 Z " fill="rgb(255,255,255)"/><path d=" M 442.7 221.371 L 442.7 141.816 L 503.612 141.816 L 503.612 160.344 L 464.52 160.344 L 464.52 170.91 L 488.044 170.91 L 488.044 189.207 L 464.52 189.207 L 464.52 202.848 L 504.412 202.848 L 504.412 221.371 L 442.7 221.371 Z " fill="rgb(255,255,255)"/><path d=" M 546.728 159.774 L 533.428 159.774 L 533.428 177.164 L 546.384 177.164 C 553.544 177.164 556.384 173.98 556.384 168.297 C 556.384 163.297 553.656 159.774 546.728 159.774 Z  M 555.252 221.371 L 542.292 194.551 L 533.428 194.551 L 533.428 221.371 L 511.724 221.371 L 511.724 141.816 L 547.292 141.816 C 565.928 141.816 578.32 148.863 578.32 167.73 C 578.32 179.664 572.752 187.051 564 191.027 L 579.912 221.371 L 555.252 221.371 Z " fill="rgb(255,255,255)"/><path d=" M 618.688 222.621 C 605.844 222.621 593.456 218.418 585.16 212.961 L 595.844 195.688 C 601.64 199.664 611.752 203.641 619.14 203.641 C 626.984 203.641 629.484 202.277 629.484 198.527 C 629.484 195.574 626.64 193.754 615.96 191.254 C 596.752 186.82 587.548 181.594 587.548 165.684 C 587.548 150.684 599.708 140.566 618.916 140.566 C 632.436 140.566 642.212 143.863 650.62 149.774 L 639.936 167.047 C 632.892 162.274 625.848 159.547 617.776 159.547 C 611.188 159.547 609.592 161.594 609.592 164.434 C 609.592 167.387 612.436 168.754 622.664 171.141 C 642.668 175.914 651.532 182.051 651.532 196.938 C 651.532 215.121 637.78 222.621 618.688 222.621 Z " fill="rgb(255,255,255)"/><path d=" M 657.56 221.371 L 657.56 141.816 L 680.064 141.816 L 680.064 221.371 L 657.56 221.371 Z " fill="rgb(255,255,255)"/><path d=" M 729.744 161.024 L 729.744 221.371 L 707.692 221.371 L 707.692 161.024 L 685.416 161.024 L 685.416 141.816 L 752.016 141.816 L 752.016 161.024 L 729.744 161.024 Z " fill="rgb(255,255,255)"/><path d=" M 808.932 191.711 L 808.932 221.371 L 786.66 221.371 L 786.66 192.051 L 757.228 141.816 L 782.68 141.816 L 788.82 153.863 C 793.024 162.16 796.432 169.774 797.912 174.434 C 799.388 169.774 802.796 162.16 807.004 153.863 L 813.14 141.816 L 838.368 141.816 L 808.932 191.711 Z " fill="rgb(255,255,255)"/></g></svg>