<!DOCTYPE svg PUBLIC "-//W3C//DTD SVG 20010904//EN" "http://www.w3.org/TR/2001/REC-SVG-20010904/DTD/svg10.dtd">
<svg version="1.0" xmlns="http://www.w3.org/2000/svg" width="1200px" height="493px" viewBox="0 0 12000 4930" preserveAspectRatio="xMidYMid meet">
<g id="layer101" fill="#e31a39" stroke="none">
<path d="M2200 4919 c-19 -4 -71 -13 -115 -19 -180 -26 -403 -91 -596 -174 -423 -181 -820 -510 -1072 -891 -82 -122 -99 -152 -154 -260 -112 -219 -194 -471 -233 -710 -6 -38 -15 -92 -21 -118 -12 -63 -12 -501 0 -564 6 -26 15 -79 21 -118 46 -285 170 -627 309 -850 123 -199 227 -331 376 -480 392 -393 882 -638 1435 -717 103 -15 1482 -15 1570 0 127 21 179 31 247 47 74 17 196 52 228 66 11 4 41 15 66 23 185 60 488 231 685 388 44 34 126 107 183 162 670 650 914 1612 634 2500 -172 547 -540 1022 -1036 1339 -224 144 -473 252 -722 313 -106 26 -139 33 -210 43 -38 6 -86 14 -105 18 -50 9 -1448 12 -1490 2z"/>
</g>
<g id="layer102" fill="#fffcfd" stroke="none">
<path d="M2200 4919 c-19 -4 -71 -13 -115 -19 -180 -26 -403 -91 -596 -174 -423 -181 -820 -510 -1072 -891 -82 -122 -99 -152 -154 -260 -112 -219 -194 -471 -233 -710 -6 -38 -15 -92 -21 -118 -12 -63 -12 -501 0 -564 6 -26 15 -79 21 -118 46 -285 170 -627 309 -850 123 -199 227 -331 376 -480 392 -393 882 -638 1435 -717 103 -15 1482 -15 1570 0 127 21 179 31 247 47 74 17 196 52 228 66 11 4 41 15 66 23 185 60 488 231 685 388 44 34 126 107 183 162 670 650 914 1612 634 2500 -172 547 -540 1022 -1036 1339 -224 144 -473 252 -722 313 -106 26 -139 33 -210 43 -38 6 -86 14 -105 18 -50 9 -1448 12 -1490 2z m604 -149 c102 -16 121 -25 83 -39 -16 -6 -35 -11 -43 -11 -8 0 -83 -22 -166 -50 -756 -249 -1341 -882 -1526 -1651 -44 -183 -72 -397 -72 -554 0 -157 28 -371 72 -554 116 -484 402 -935 791 -1250 243 -196 550 -355 832 -432 44 -12 90 -24 103 -28 35 -10 26 -25 -20 -34 -194 -34 -536 -35 -743 -2 -333 53 -657 178 -930 360 -326 217 -642 580 -804 925 -164 350 -226 629 -225 1020 0 254 26 450 85 645 26 87 40 127 69 200 290 735 932 1276 1695 1430 257 51 561 61 799 25z m987 -9 c471 -83 881 -291 1221 -619 372 -359 603 -808 687 -1332 71 -448 -2 -932 -206 -1356 -318 -666 -953 -1152 -1670 -1279 -158 -28 -348 -40 -518 -33 -167 7 -340 29 -356 45 -5 5 -10 924 -11 2281 l-3 2272 30 9 c17 5 68 14 115 20 47 6 99 13 115 15 17 3 131 3 255 1 170 -3 253 -8 341 -24z"/>
<path d="M3195 4711 c-41 -8 -35 -22 17 -38 336 -109 663 -316 929 -589 565 -581 789 -1423 584 -2199 -119 -449 -335 -811 -675 -1130 -231 -217 -545 -403 -840 -498 -101 -33 -41 -47 200 -47 190 0 435 31 565 70 422 130 699 286 987 558 242 229 463 576 569 895 82 248 119 475 119 732 0 432 -115 836 -342 1199 -332 531 -848 885 -1489 1020 -144 31 -530 47 -624 27z"/>
<path d="M10973 4130 c-71 -36 -105 -72 -142 -150 l-26 -55 -3 -591 c-2 -532 -1 -594 13 -608 13 -13 39 -16 126 -16 61 0 119 5 130 10 18 10 19 27 19 555 0 383 3 551 11 569 20 42 50 47 272 44 182 -3 208 -5 224 -21 17 -16 18 -56 21 -575 2 -508 4 -558 19 -569 11 -9 54 -13 125 -13 98 0 108 2 118 20 8 14 10 208 8 638 -3 690 2 644 -77 715 -82 74 -69 72 -441 75 l-335 3 -62 -31z"/>
<path d="M6462 4138 c-9 -9 -12 -180 -12 -710 0 -679 1 -698 19 -708 25 -13 167 -13 191 0 11 6 31 34 44 63 13 28 61 131 106 227 45 96 101 218 125 270 23 52 67 147 98 210 30 63 62 133 71 154 10 23 20 36 25 30 5 -5 36 -67 69 -139 33 -71 92 -200 132 -285 40 -85 101 -218 136 -295 81 -176 103 -217 122 -232 19 -16 165 -17 193 -3 18 10 19 29 19 708 0 530 -3 701 -12 710 -16 16 -254 17 -263 1 -4 -6 -6 -159 -6 -340 2 -284 0 -329 -13 -329 -8 0 -18 10 -22 23 -3 12 -36 90 -71 172 -36 83 -84 195 -108 250 -24 55 -57 131 -74 168 l-31 68 -77 -3 -77 -3 -56 -130 c-31 -71 -97 -223 -146 -337 -49 -114 -93 -208 -99 -208 -7 0 -9 111 -7 319 2 221 0 326 -8 340 -10 20 -20 21 -133 21 -82 0 -127 -4 -135 -12z"/>
<path d="M8136 4134 c-3 -9 -6 -328 -6 -709 0 -676 1 -695 19 -705 13 -6 181 -10 476 -10 295 0 463 4 476 10 17 10 19 22 19 121 l0 109 -27 11 c-17 6 -145 9 -343 8 l-315 -2 -3 167 -2 166 254 0 c156 0 257 4 261 10 11 17 9 210 -2 221 -7 7 -96 10 -256 10 -160 -1 -248 2 -252 8 -5 8 -8 206 -5 319 0 9 75 12 343 12 253 0 346 3 355 12 8 8 12 50 12 123 0 73 -4 115 -12 123 -9 9 -134 12 -499 12 -435 0 -488 -2 -493 -16z"/>
<path d="M9837 4143 c-4 -3 -7 -266 -7 -584 0 -411 -3 -580 -11 -585 -6 -3 -110 -7 -230 -8 -183 -1 -221 -3 -229 -16 -5 -8 -10 -59 -10 -112 0 -75 4 -100 16 -112 14 -14 81 -16 595 -16 381 0 587 4 600 10 17 10 19 22 19 121 l0 109 -27 11 c-17 6 -104 9 -223 8 -108 -2 -202 1 -208 5 -10 6 -12 135 -12 582 1 315 -1 578 -5 584 -7 11 -257 14 -268 3z"/>
<path d="M6660 2214 c-77 -24 -134 -75 -172 -151 l-33 -68 -3 -475 c-3 -491 -1 -520 39 -600 24 -49 96 -113 150 -134 39 -15 86 -17 424 -14 l380 3 40 26 c47 31 72 58 111 119 l29 45 0 530 c0 592 5 551 -72 636 -40 44 -76 67 -138 86 -61 19 -694 17 -755 -3z m650 -269 c49 -25 51 -53 48 -472 l-3 -383 -26 -26 -27 -26 -238 -4 c-154 -3 -251 0 -271 7 -64 21 -63 12 -63 457 l0 404 29 29 29 29 247 0 c199 0 251 -3 275 -15z"/>
<path d="M11005 2212 c-91 -32 -158 -99 -190 -192 -13 -39 -15 -129 -13 -640 l3 -595 130 -3 c114 -2 131 -1 143 15 10 14 12 134 12 562 l-1 544 22 23 c22 24 24 24 241 24 205 0 219 -1 238 -20 20 -20 20 -33 20 -574 0 -461 2 -555 14 -565 9 -8 54 -11 132 -9 l119 3 3 634 2 634 -30 46 c-34 52 -75 84 -149 112 -47 17 -78 19 -349 19 -255 -1 -304 -3 -347 -18z"/>
<path d="M7967 2208 c-16 -12 -17 -55 -15 -718 l3 -705 473 -3 473 -2 55 27 c64 31 117 86 148 152 21 45 21 56 21 541 l0 495 -27 50 c-30 59 -100 126 -155 152 -34 16 -84 18 -498 21 -367 2 -464 0 -478 -10z m840 -283 c12 -8 25 -30 28 -47 3 -18 5 -200 3 -405 l-3 -371 -24 -26 -25 -26 -270 2 -271 3 -3 439 c-1 257 2 442 7 445 5 3 128 5 273 3 208 -2 268 -6 285 -17z"/>
<path d="M9840 2210 c-13 -8 -16 -89 -20 -592 l-5 -583 -215 -3 c-188 -2 -217 -4 -227 -19 -16 -21 -18 -186 -3 -214 10 -18 27 -19 585 -19 558 0 575 1 585 19 15 28 13 193 -2 214 -11 15 -40 17 -223 19 l-210 3 -3 580 c-2 531 -3 581 -19 593 -20 14 -220 17 -243 2z"/>
<path d="M10952 548 c-8 -8 -12 -49 -12 -120 0 -96 2 -108 19 -118 11 -5 70 -10 131 -10 61 0 120 5 131 10 17 10 19 22 19 118 0 71 -4 112 -12 120 -17 17 -259 17 -276 0z"/>
<path d="M11482 548 c-16 -16 -16 -220 0 -236 13 -13 232 -18 262 -6 13 5 16 26 16 124 0 98 -3 119 -16 124 -30 12 -249 7 -262 -6z"/>
</g>


</svg>